<mxfile host="app.diagrams.net" modified="2022-12-09T15:55:15.793Z" agent="5.0 (Windows NT 10.0; Win64; x64) AppleWebKit/537.36 (KHTML, like Gecko) Chrome/108.0.0.0 Safari/537.36" version="20.6.2" etag="HmP4HxOoUPf8pI0qgqC0" type="github">
  <diagram id="XX9TZuBpVWSorxJBGNVo" name="Page-1">
    <mxGraphModel dx="2595" dy="1303" grid="1" gridSize="10" guides="1" tooltips="1" connect="1" arrows="1" fold="1" page="1" pageScale="1" pageWidth="1654" pageHeight="1169" math="0" shadow="0">
      <root>
        <mxCell id="0" />
        <mxCell id="1" parent="0" />
        <mxCell id="JxQ8qRMYIsiAhTZgvPfZ-1" value="Kubernetes Cluster" style="swimlane;whiteSpace=wrap;html=1;" vertex="1" parent="1">
          <mxGeometry x="40" y="110" width="1220" height="630" as="geometry" />
        </mxCell>
        <mxCell id="JxQ8qRMYIsiAhTZgvPfZ-2" value="Namespace: Default" style="swimlane;whiteSpace=wrap;html=1;" vertex="1" parent="JxQ8qRMYIsiAhTZgvPfZ-1">
          <mxGeometry x="20" y="40" width="790" height="430" as="geometry" />
        </mxCell>
        <mxCell id="JxQ8qRMYIsiAhTZgvPfZ-18" value="2" style="edgeStyle=orthogonalEdgeStyle;rounded=0;orthogonalLoop=1;jettySize=auto;html=1;exitX=1;exitY=0.75;exitDx=0;exitDy=0;" edge="1" parent="JxQ8qRMYIsiAhTZgvPfZ-2" source="JxQ8qRMYIsiAhTZgvPfZ-4">
          <mxGeometry relative="1" as="geometry">
            <mxPoint x="500" y="390" as="targetPoint" />
            <Array as="points">
              <mxPoint x="270" y="180" />
              <mxPoint x="330" y="180" />
              <mxPoint x="330" y="390" />
            </Array>
          </mxGeometry>
        </mxCell>
        <mxCell id="JxQ8qRMYIsiAhTZgvPfZ-4" value="Service 1" style="shape=process;whiteSpace=wrap;html=1;backgroundOutline=1;" vertex="1" parent="JxQ8qRMYIsiAhTZgvPfZ-2">
          <mxGeometry x="20" y="120" width="250" height="65" as="geometry" />
        </mxCell>
        <mxCell id="JxQ8qRMYIsiAhTZgvPfZ-19" style="edgeStyle=orthogonalEdgeStyle;rounded=0;orthogonalLoop=1;jettySize=auto;html=1;exitX=0;exitY=0.5;exitDx=0;exitDy=0;dashed=1;" edge="1" parent="JxQ8qRMYIsiAhTZgvPfZ-2" source="JxQ8qRMYIsiAhTZgvPfZ-5">
          <mxGeometry relative="1" as="geometry">
            <mxPoint x="270" y="170" as="targetPoint" />
            <Array as="points">
              <mxPoint x="350" y="368" />
              <mxPoint x="350" y="170" />
              <mxPoint x="270" y="170" />
            </Array>
          </mxGeometry>
        </mxCell>
        <mxCell id="JxQ8qRMYIsiAhTZgvPfZ-5" value="Service 2" style="shape=process;whiteSpace=wrap;html=1;backgroundOutline=1;" vertex="1" parent="JxQ8qRMYIsiAhTZgvPfZ-2">
          <mxGeometry x="500" y="335" width="250" height="65" as="geometry" />
        </mxCell>
        <mxCell id="JxQ8qRMYIsiAhTZgvPfZ-7" value="Pod 1.1" style="rounded=1;whiteSpace=wrap;html=1;" vertex="1" parent="JxQ8qRMYIsiAhTZgvPfZ-2">
          <mxGeometry x="20" y="40" width="120" height="60" as="geometry" />
        </mxCell>
        <mxCell id="JxQ8qRMYIsiAhTZgvPfZ-8" value="Pod 2.1" style="rounded=1;whiteSpace=wrap;html=1;" vertex="1" parent="JxQ8qRMYIsiAhTZgvPfZ-2">
          <mxGeometry x="500" y="260" width="120" height="60" as="geometry" />
        </mxCell>
        <mxCell id="JxQ8qRMYIsiAhTZgvPfZ-9" value="Pod 2.2" style="rounded=1;whiteSpace=wrap;html=1;" vertex="1" parent="JxQ8qRMYIsiAhTZgvPfZ-2">
          <mxGeometry x="630" y="260" width="120" height="60" as="geometry" />
        </mxCell>
        <mxCell id="JxQ8qRMYIsiAhTZgvPfZ-3" value="Namespace: Application" style="swimlane;whiteSpace=wrap;html=1;" vertex="1" parent="JxQ8qRMYIsiAhTZgvPfZ-1">
          <mxGeometry x="850" y="40" width="350" height="430" as="geometry" />
        </mxCell>
        <mxCell id="JxQ8qRMYIsiAhTZgvPfZ-6" value="Service 3" style="shape=process;whiteSpace=wrap;html=1;backgroundOutline=1;" vertex="1" parent="JxQ8qRMYIsiAhTZgvPfZ-3">
          <mxGeometry x="55" y="130" width="250" height="65" as="geometry" />
        </mxCell>
        <mxCell id="JxQ8qRMYIsiAhTZgvPfZ-10" value="Pod 3.1" style="rounded=1;whiteSpace=wrap;html=1;" vertex="1" parent="JxQ8qRMYIsiAhTZgvPfZ-3">
          <mxGeometry x="55" y="50" width="120" height="60" as="geometry" />
        </mxCell>
        <mxCell id="JxQ8qRMYIsiAhTZgvPfZ-11" value="Pod 3.2" style="rounded=1;whiteSpace=wrap;html=1;" vertex="1" parent="JxQ8qRMYIsiAhTZgvPfZ-3">
          <mxGeometry x="185" y="50" width="120" height="60" as="geometry" />
        </mxCell>
        <mxCell id="JxQ8qRMYIsiAhTZgvPfZ-16" value="1" style="edgeStyle=orthogonalEdgeStyle;rounded=0;orthogonalLoop=1;jettySize=auto;html=1;entryX=0.684;entryY=1.023;entryDx=0;entryDy=0;entryPerimeter=0;" edge="1" parent="JxQ8qRMYIsiAhTZgvPfZ-1" source="JxQ8qRMYIsiAhTZgvPfZ-13" target="JxQ8qRMYIsiAhTZgvPfZ-4">
          <mxGeometry relative="1" as="geometry">
            <mxPoint x="230" y="290" as="targetPoint" />
            <Array as="points">
              <mxPoint x="211" y="410" />
              <mxPoint x="211" y="410" />
            </Array>
          </mxGeometry>
        </mxCell>
        <mxCell id="JxQ8qRMYIsiAhTZgvPfZ-13" value="Ingress" style="shape=process;whiteSpace=wrap;html=1;backgroundOutline=1;" vertex="1" parent="JxQ8qRMYIsiAhTZgvPfZ-1">
          <mxGeometry x="20" y="485" width="1180" height="115" as="geometry" />
        </mxCell>
        <mxCell id="JxQ8qRMYIsiAhTZgvPfZ-17" style="edgeStyle=orthogonalEdgeStyle;rounded=0;orthogonalLoop=1;jettySize=auto;html=1;dashed=1;" edge="1" parent="JxQ8qRMYIsiAhTZgvPfZ-1" source="JxQ8qRMYIsiAhTZgvPfZ-4" target="JxQ8qRMYIsiAhTZgvPfZ-13">
          <mxGeometry relative="1" as="geometry">
            <Array as="points">
              <mxPoint x="185" y="440" />
              <mxPoint x="185" y="440" />
            </Array>
          </mxGeometry>
        </mxCell>
        <mxCell id="JxQ8qRMYIsiAhTZgvPfZ-24" value="3" style="edgeStyle=orthogonalEdgeStyle;rounded=0;orthogonalLoop=1;jettySize=auto;html=1;entryX=0;entryY=0.75;entryDx=0;entryDy=0;" edge="1" parent="JxQ8qRMYIsiAhTZgvPfZ-1" source="JxQ8qRMYIsiAhTZgvPfZ-4" target="JxQ8qRMYIsiAhTZgvPfZ-6">
          <mxGeometry relative="1" as="geometry" />
        </mxCell>
        <mxCell id="JxQ8qRMYIsiAhTZgvPfZ-25" style="edgeStyle=orthogonalEdgeStyle;rounded=0;orthogonalLoop=1;jettySize=auto;html=1;entryX=1;entryY=0.25;entryDx=0;entryDy=0;dashed=1;" edge="1" parent="JxQ8qRMYIsiAhTZgvPfZ-1" source="JxQ8qRMYIsiAhTZgvPfZ-6" target="JxQ8qRMYIsiAhTZgvPfZ-4">
          <mxGeometry relative="1" as="geometry">
            <Array as="points">
              <mxPoint x="650" y="203" />
              <mxPoint x="650" y="176" />
            </Array>
          </mxGeometry>
        </mxCell>
        <mxCell id="JxQ8qRMYIsiAhTZgvPfZ-26" value="4" style="edgeStyle=orthogonalEdgeStyle;rounded=0;orthogonalLoop=1;jettySize=auto;html=1;" edge="1" parent="1" source="JxQ8qRMYIsiAhTZgvPfZ-23">
          <mxGeometry relative="1" as="geometry">
            <mxPoint x="695" y="710" as="targetPoint" />
            <Array as="points">
              <mxPoint x="695" y="710" />
            </Array>
          </mxGeometry>
        </mxCell>
        <mxCell id="JxQ8qRMYIsiAhTZgvPfZ-23" value="Client" style="shape=umlActor;verticalLabelPosition=bottom;verticalAlign=top;html=1;outlineConnect=0;" vertex="1" parent="1">
          <mxGeometry x="680" y="830" width="30" height="60" as="geometry" />
        </mxCell>
        <mxCell id="JxQ8qRMYIsiAhTZgvPfZ-27" style="edgeStyle=orthogonalEdgeStyle;rounded=0;orthogonalLoop=1;jettySize=auto;html=1;dashed=1;" edge="1" parent="1" source="JxQ8qRMYIsiAhTZgvPfZ-13" target="JxQ8qRMYIsiAhTZgvPfZ-23">
          <mxGeometry relative="1" as="geometry">
            <Array as="points">
              <mxPoint x="740" y="860" />
            </Array>
          </mxGeometry>
        </mxCell>
        <mxCell id="JxQ8qRMYIsiAhTZgvPfZ-31" style="edgeStyle=orthogonalEdgeStyle;rounded=0;orthogonalLoop=1;jettySize=auto;html=1;dashed=1;" edge="1" parent="1" source="JxQ8qRMYIsiAhTZgvPfZ-28">
          <mxGeometry relative="1" as="geometry">
            <mxPoint x="1195" y="310" as="targetPoint" />
            <Array as="points">
              <mxPoint x="1320" y="280" />
              <mxPoint x="1320" y="310" />
              <mxPoint x="1195" y="310" />
            </Array>
          </mxGeometry>
        </mxCell>
        <mxCell id="JxQ8qRMYIsiAhTZgvPfZ-28" value="External Services" style="swimlane;whiteSpace=wrap;html=1;" vertex="1" parent="1">
          <mxGeometry x="1330" y="170" width="170" height="200" as="geometry" />
        </mxCell>
        <mxCell id="JxQ8qRMYIsiAhTZgvPfZ-30" value="5" style="edgeStyle=orthogonalEdgeStyle;rounded=0;orthogonalLoop=1;jettySize=auto;html=1;entryX=0;entryY=0.5;entryDx=0;entryDy=0;" edge="1" parent="1" source="JxQ8qRMYIsiAhTZgvPfZ-6" target="JxQ8qRMYIsiAhTZgvPfZ-28">
          <mxGeometry relative="1" as="geometry">
            <mxPoint x="1420" y="260" as="targetPoint" />
            <Array as="points">
              <mxPoint x="1310" y="300" />
              <mxPoint x="1310" y="270" />
            </Array>
          </mxGeometry>
        </mxCell>
        <mxCell id="JxQ8qRMYIsiAhTZgvPfZ-32" value="List" style="swimlane;fontStyle=0;childLayout=stackLayout;horizontal=1;startSize=30;horizontalStack=0;resizeParent=1;resizeParentMax=0;resizeLast=0;collapsible=1;marginBottom=0;whiteSpace=wrap;html=1;" vertex="1" parent="1">
          <mxGeometry x="950" y="470" width="140" height="120" as="geometry" />
        </mxCell>
        <mxCell id="JxQ8qRMYIsiAhTZgvPfZ-33" value="Item 1" style="text;strokeColor=none;fillColor=none;align=left;verticalAlign=middle;spacingLeft=4;spacingRight=4;overflow=hidden;points=[[0,0.5],[1,0.5]];portConstraint=eastwest;rotatable=0;whiteSpace=wrap;html=1;" vertex="1" parent="JxQ8qRMYIsiAhTZgvPfZ-32">
          <mxGeometry y="30" width="140" height="30" as="geometry" />
        </mxCell>
        <mxCell id="JxQ8qRMYIsiAhTZgvPfZ-34" value="Item 2" style="text;strokeColor=none;fillColor=none;align=left;verticalAlign=middle;spacingLeft=4;spacingRight=4;overflow=hidden;points=[[0,0.5],[1,0.5]];portConstraint=eastwest;rotatable=0;whiteSpace=wrap;html=1;" vertex="1" parent="JxQ8qRMYIsiAhTZgvPfZ-32">
          <mxGeometry y="60" width="140" height="30" as="geometry" />
        </mxCell>
        <mxCell id="JxQ8qRMYIsiAhTZgvPfZ-35" value="Item 3" style="text;strokeColor=none;fillColor=none;align=left;verticalAlign=middle;spacingLeft=4;spacingRight=4;overflow=hidden;points=[[0,0.5],[1,0.5]];portConstraint=eastwest;rotatable=0;whiteSpace=wrap;html=1;" vertex="1" parent="JxQ8qRMYIsiAhTZgvPfZ-32">
          <mxGeometry y="90" width="140" height="30" as="geometry" />
        </mxCell>
        <mxCell id="JxQ8qRMYIsiAhTZgvPfZ-36" value="&lt;h1&gt;Security Concerns&lt;/h1&gt;&lt;p&gt;1:&lt;/p&gt;&lt;p&gt;&amp;nbsp;&lt;/p&gt;&lt;p&gt;2:&lt;/p&gt;&lt;p&gt;&lt;br&gt;&lt;/p&gt;&lt;p&gt;3:&amp;nbsp;&lt;/p&gt;&lt;p&gt;&lt;br&gt;&lt;/p&gt;&lt;p&gt;4:&amp;nbsp;&lt;/p&gt;&lt;p&gt;&lt;br&gt;&lt;/p&gt;&lt;p&gt;5:&lt;/p&gt;&lt;p&gt;&lt;br&gt;&lt;/p&gt;&lt;p&gt;&lt;br&gt;&lt;/p&gt;" style="text;html=1;strokeColor=none;fillColor=none;spacing=5;spacingTop=-20;whiteSpace=wrap;overflow=hidden;rounded=0;" vertex="1" parent="1">
          <mxGeometry x="1330" y="480" width="290" height="400" as="geometry" />
        </mxCell>
      </root>
    </mxGraphModel>
  </diagram>
</mxfile>
